<?xml version="1.0" standalone="no"?>
<!DOCTYPE svg PUBLIC "-//W3C//DTD SVG 20010904//EN"
 "http://www.w3.org/TR/2001/REC-SVG-20010904/DTD/svg10.dtd">
<svg version="1.0" xmlns="http://www.w3.org/2000/svg"
 width="420.000000pt" height="420.000000pt" viewBox="0 0 420.000000 420.000000"
 preserveAspectRatio="xMidYMid meet">
<metadata>
Created by potrace 1.11, written by Peter Selinger 2001-2013
</metadata>
<g transform="translate(0.000000,420.000000) scale(0.100000,-0.100000)"
fill="#000000" stroke="none">
<path d="M0 2100 l0 -2100 2100 0 2100 0 0 2100 0 2100 -2100 0 -2100 0 0
-2100z m940 480 c0 -220 3 -400 8 -400 4 1 36 42 71 93 35 51 175 230 310 400
l245 307 208 0 c165 0 208 -3 202 -12 -4 -7 -142 -183 -306 -390 -164 -208
-298 -382 -298 -387 0 -5 139 -229 309 -497 l310 -489 -207 -3 c-114 -1 -212
0 -218 2 -6 2 -113 169 -239 370 -125 201 -231 366 -236 366 -5 0 -43 -25 -84
-55 l-75 -56 0 -314 0 -315 -190 0 -190 0 0 890 0 890 190 0 190 0 0 -400z
m2043 385 c317 -48 542 -216 650 -485 81 -206 82 -543 1 -759 -97 -259 -302
-425 -609 -494 -78 -17 -136 -20 -452 -24 l-363 -5 0 891 0 891 338 0 c245 0
364 -4 435 -15z"/>
<path d="M2590 2095 l0 -578 153 6 c220 8 322 42 415 140 93 99 130 203 139
393 15 318 -88 515 -310 586 -48 16 -99 22 -229 26 l-168 5 0 -578z"/>
</g>
</svg>
